# xmcd CD database file
#
# Track frame offsets:
#	150
#	17028
#	35367
#	53061
#	73610
#	90560
#	106985
#
# Disc length: 1762 seconds
#
# Revision: 0
# Processed by: cddbd v1.5.2PL0 Copyright (c) Steve Scherf et al.
# Submitted via: CDex 1.70beta2
#
DISCID=5006e007
DTITLE=The Sun Messengers - Get On Up And Dance
DYEAR=2011
DGENRE=Jazz
TTITLE0=Let's Juke
TTITLE1=That's Life
TTITLE2=Get On Up And Dance
TTITLE3=Talk Is Cheap
TTITLE4=Groove City
TTITLE5=Crazy 'Bout You Baby
TTITLE6=Night In Tunisia
EXTD=YEAR: 2011
EXTT0=
EXTT1=
EXTT2=
EXTT3=
EXTT4=
EXTT5=
EXTT6=
PLAYORDER=
